<svg xmlns="http://www.w3.org/2000/svg" width="24" height="24" viewBox="0 0 24 24"><g fill="none" stroke="#FFFFFF" stroke-linejoin="round" stroke-width="1.5"><path d="M12.253 19.4L7.99 15.782a1 1 0 0 0-.647-.238H4.75a2 2 0 0 1-2-2v-3.086a2 2 0 0 1 2-2h2.594a1 1 0 0 0 .647-.238l4.262-3.62a1 1 0 0 1 1.647.762V18.64a1 1 0 0 1-1.647.762Z"/><path stroke-linecap="round" d="M16.664 8.542c.48.35.88.854 1.158 1.462c.277.607.424 1.295.424 1.996c0 .7-.147 1.39-.424 1.996c-.278.607-.677 1.112-1.158 1.462M18.7 6.424c.775.565 1.42 1.378 1.867 2.357c.447.978.683 2.089.683 3.219s-.236 2.24-.683 3.22c-.448.978-1.092 1.791-1.867 2.356"/></g></svg>